<?xml version="1.0" encoding="UTF-8" standalone="no"?>
<svg
   xmlns:dc="http://purl.org/dc/elements/1.1/"
   xmlns:cc="http://creativecommons.org/ns#"
   xmlns:rdf="http://www.w3.org/1999/02/22-rdf-syntax-ns#"
   xmlns:svg="http://www.w3.org/2000/svg"
   xmlns="http://www.w3.org/2000/svg"
   xmlns:sodipodi="http://sodipodi.sourceforge.net/DTD/sodipodi-0.dtd"
   xmlns:inkscape="http://www.inkscape.org/namespaces/inkscape"
   width="108"
   height="108"
   viewBox="0 0 28.574999 28.575001"
   version="1.1"
   id="svg8"
   inkscape:version="1.0.1 (3bc2e813f5, 2020-09-07)"
   sodipodi:docname="ic_launcher.svg">
  <defs
     id="defs2" />
  <sodipodi:namedview
     id="base"
     pagecolor="#ffffff"
     bordercolor="#666666"
     borderopacity="1.0"
     inkscape:pageopacity="0.0"
     inkscape:pageshadow="2"
     inkscape:zoom="3.959798"
     inkscape:cx="39.188392"
     inkscape:cy="60.94917"
     inkscape:document-units="px"
     inkscape:current-layer="layer1"
     inkscape:document-rotation="0"
     showgrid="false"
     units="px"
     inkscape:window-width="1600"
     inkscape:window-height="877"
     inkscape:window-x="1912"
     inkscape:window-y="174"
     inkscape:window-maximized="1" />
  <metadata
     id="metadata5">
    <rdf:RDF>
      <cc:Work
         rdf:about="">
        <dc:format>image/svg+xml</dc:format>
        <dc:type
           rdf:resource="http://purl.org/dc/dcmitype/StillImage" />
        <dc:title></dc:title>
      </cc:Work>
    </rdf:RDF>
  </metadata>
  <g
     inkscape:label="Layer 1"
     inkscape:groupmode="layer"
     id="layer1">
    <path
       id="path"
       d="M 4.5522878,20.579802 V 4.5508062 H 24.024316 v 7.3025128 h 2.434017 V 4.5508062 c 0,-1.338786 -1.095277,-2.4341395 -2.434017,-2.4341395 H 4.5522878 c -1.3386955,0 -2.4218289,1.0953535 -2.4218289,2.4341395 L 2.1166667,26.458333 6.9847046,21.590009 H 17.937729 V 19.155824 H 5.9745606 Z"
       fill="none"
       style="fill:#000000;stroke-width:1.21704" />
    <path
       id="path_2"
       d="m 24.800976,20.385292 0.637744,0.637743 c -0.394991,0.695346 -1.37012,1.250797 -2.283531,1.386576 v -4.579642 h 1.234343 v -0.822895 h -1.234343 v -1.518225 c 0.477279,-0.17281 0.822896,-0.625399 0.822896,-1.160281 0,-0.678889 -0.555455,-1.234342 -1.234341,-1.234342 -0.67889,0 -1.234342,0.555453 -1.234342,1.234342 0,0.534882 0.345615,0.987471 0.822894,1.160281 v 1.518225 h -1.234339 v 0.822895 h 1.234339 v 4.579642 c -0.913411,-0.135774 -1.888542,-0.69123 -2.283529,-1.386576 l 0.637743,-0.637743 -1.645787,-1.23434 v 1.23434 c 0,1.596414 2.024318,2.880128 3.703021,2.880128 1.678701,0 3.70302,-1.283714 3.70302,-2.880128 v -1.23434 z m -2.057232,-6.468171 c 0.226293,0 0.411445,0.185152 0.411445,0.411447 0,0.226294 -0.185152,0.411448 -0.411445,0.411448 -0.226298,0 -0.411448,-0.185154 -0.411448,-0.411448 0,-0.226295 0.18515,-0.411447 0.411448,-0.411447 z"
       fill="none"
       style="fill:#000000;stroke-width:0.411445"
       sodipodi:nodetypes="ccccccccssscccccccccsssccsssss" />
  </g>
</svg>
